# xmcd CD database file
# Copyright (C) 1993-1998 Ti Kan
#
# Track frame offsets:
#	182
#	18790
#	38895
#	58947
#	80355
#	99805
#	117242
#	136512
#	155052
#	177307
#
# Disc length: 2600 seconds
#
# Revision: 1
# Processed by: cddbd v1.4b41PL1 Copyright (c) Steve Scherf et al.
# Submitted via: CDValet v3.31 - Copyright (c) 1997 Greg Leichner
#
DISCID=730a260a
DTITLE=George La Mond - Creo En Ti
DYEAR=1900
DGENRE=
TTITLE0=Baby Creo En Ti
TTITLE1=Y Ahora Dónde Estará
TTITLE2=No Morirá
TTITLE3=El Cielo Te Daré
TTITLE4=Bad Of The Heart
TTITLE5=Tentación
TTITLE6=Siempre Que Comienza A Llover
TTITLE7=Todo Terminó
TTITLE8=No Se Vivir Sin Ti
TTITLE9=Baby I Believe In You
EXTD=
EXTT0=
EXTT1=
EXTT2=
EXTT3=
EXTT4=
EXTT5=
EXTT6=
EXTT7=
EXTT8=
EXTT9=
PLAYORDER=
